<?xml version="1.0" encoding="UTF-8"?>
<svg xmlns="http://www.w3.org/2000/svg" xmlns:xlink="http://www.w3.org/1999/xlink" width="1000px" height="333px" viewBox="0 0 999 333" version="1.1">
<defs>
<linearGradient id="linear0" gradientUnits="userSpaceOnUse" x1="43.795101" y1="0.100098" x2="43.795101" y2="29.900101" gradientTransform="matrix(11.1,0,0,11.1,0,0)">
<stop offset="0" style="stop-color:rgb(22.352941%,100%,0%);stop-opacity:0;"/>
<stop offset="1" style="stop-color:rgb(22.352941%,100%,0%);stop-opacity:1;"/>
</linearGradient>
</defs>
<g id="surface1">
<path style=" stroke:none;fill-rule:nonzero;fill:url(#linear0);" d="M 543.929688 58 C 543.929688 26.582031 518.050781 1.109375 486.125 1.109375 C 454.199219 1.109375 428.320312 26.582031 428.320312 58 L 428.320312 275.003906 C 428.320312 306.421875 454.199219 331.890625 486.125 331.890625 C 518.050781 331.890625 543.929688 306.421875 543.929688 275.003906 Z M 543.929688 58 "/>
<path style=" stroke:none;fill-rule:nonzero;fill:rgb(19.607843%,87.843138%,0%);fill-opacity:1;" d="M 610.917969 166.578125 C 610.917969 67.648438 684.71875 1.269531 805.605469 1.269531 C 926.492188 1.269531 998.394531 67.015625 998.394531 166.578125 C 998.394531 266.140625 927.136719 331.890625 805.605469 331.890625 C 684.074219 331.890625 610.917969 265.507812 610.917969 166.578125 Z M 805.605469 281.78125 C 881.316406 281.78125 924.578125 233.574219 924.578125 166.578125 C 924.578125 99.582031 881.316406 51.375 805.605469 51.375 C 729.894531 51.375 684.71875 98.96875 684.71875 166.578125 C 684.71875 234.191406 731.164062 281.78125 805.605469 281.78125 Z M 805.605469 281.78125 "/>
<path style=" stroke:none;fill-rule:nonzero;fill:rgb(19.607843%,87.843138%,0%);fill-opacity:1;" d="M 486.125 115.082031 C 518.050781 115.082031 543.929688 89.613281 543.929688 58.195312 C 543.929688 26.777344 518.050781 1.308594 486.125 1.308594 C 454.199219 1.308594 428.320312 26.777344 428.320312 58.195312 C 428.320312 89.613281 454.199219 115.082031 486.125 115.082031 Z M 486.125 115.082031 "/>
<path style=" stroke:none;fill-rule:nonzero;fill:rgb(19.607843%,87.843138%,0%);fill-opacity:1;" d="M 209.308594 1.269531 C 141.996094 1.269531 99.699219 25.886719 75.691406 54.507812 L 75.691406 8.78125 L 0.605469 8.78125 L 0.605469 324.992188 L 75.691406 324.992188 L 75.691406 159.066406 C 75.691406 93.320312 120.222656 55.121094 186.40625 55.121094 C 246.847656 55.121094 278.027344 86.421875 278.027344 149.039062 L 278.027344 324.992188 L 353.113281 324.992188 L 353.113281 134.644531 C 353.113281 48.859375 303.484375 1.269531 209.328125 1.269531 Z M 209.308594 1.269531 "/>
</g>
</svg>
